<mxfile host="app.diagrams.net" modified="2023-03-27T08:34:40.928Z" agent="Mozilla/5.0 (Windows NT 10.0; Win64; x64) AppleWebKit/537.36 (KHTML, like Gecko) Chrome/111.0.0.0 Safari/537.36 Edg/111.0.1661.54" etag="a4e3DQy_HnN5_PAw1q8d" version="21.1.1" type="github">
  <diagram name="第 1 页" id="ydfWIhaEGLxtbmc5iYuI">
    <mxGraphModel dx="897" dy="576" grid="1" gridSize="10" guides="1" tooltips="1" connect="1" arrows="1" fold="1" page="0" pageScale="1" pageWidth="827" pageHeight="1169" math="1" shadow="0">
      <root>
        <mxCell id="0" />
        <mxCell id="1" parent="0" />
        <mxCell id="cRdm3prOxwqchVpbVx2k-49" value="" style="endArrow=classic;html=1;rounded=0;" parent="1" edge="1">
          <mxGeometry width="50" height="50" relative="1" as="geometry">
            <mxPoint x="170" y="540" as="sourcePoint" />
            <mxPoint x="170" y="380" as="targetPoint" />
          </mxGeometry>
        </mxCell>
        <mxCell id="cRdm3prOxwqchVpbVx2k-63" value="" style="childLayout=tableLayout;recursiveResize=0;shadow=0;fillColor=#ffff88;direction=north;strokeColor=#36393d;" parent="1" vertex="1">
          <mxGeometry x="190" y="380" width="160" height="160" as="geometry" />
        </mxCell>
        <mxCell id="cRdm3prOxwqchVpbVx2k-64" value="" style="shape=tableRow;horizontal=0;startSize=0;swimlaneHead=0;swimlaneBody=0;top=0;left=0;bottom=0;right=0;dropTarget=0;collapsible=0;recursiveResize=0;expand=0;fontStyle=0;fillColor=none;strokeColor=inherit;" parent="cRdm3prOxwqchVpbVx2k-63" vertex="1">
          <mxGeometry width="160" height="42" as="geometry" />
        </mxCell>
        <mxCell id="cRdm3prOxwqchVpbVx2k-65" value="1" style="connectable=0;recursiveResize=0;strokeColor=#36393d;fillColor=#E1D5E7;align=center;whiteSpace=wrap;html=1;fillStyle=solid;" parent="cRdm3prOxwqchVpbVx2k-64" vertex="1">
          <mxGeometry width="40" height="42" as="geometry">
            <mxRectangle width="40" height="42" as="alternateBounds" />
          </mxGeometry>
        </mxCell>
        <mxCell id="cRdm3prOxwqchVpbVx2k-66" value="4" style="connectable=0;recursiveResize=0;strokeColor=#36393d;fillColor=#E1D5E7;align=center;whiteSpace=wrap;html=1;fillStyle=solid;" parent="cRdm3prOxwqchVpbVx2k-64" vertex="1">
          <mxGeometry x="40" width="40" height="42" as="geometry">
            <mxRectangle width="40" height="42" as="alternateBounds" />
          </mxGeometry>
        </mxCell>
        <mxCell id="cRdm3prOxwqchVpbVx2k-67" value="2" style="connectable=0;recursiveResize=0;strokeColor=#36393d;fillColor=#D5E8D4;align=center;whiteSpace=wrap;html=1;" parent="cRdm3prOxwqchVpbVx2k-64" vertex="1">
          <mxGeometry x="80" width="40" height="42" as="geometry">
            <mxRectangle width="40" height="42" as="alternateBounds" />
          </mxGeometry>
        </mxCell>
        <mxCell id="cRdm3prOxwqchVpbVx2k-127" value="3" style="connectable=0;recursiveResize=0;strokeColor=#36393d;fillColor=#D5E8D4;align=center;whiteSpace=wrap;html=1;" parent="cRdm3prOxwqchVpbVx2k-64" vertex="1">
          <mxGeometry x="120" width="40" height="42" as="geometry">
            <mxRectangle width="40" height="42" as="alternateBounds" />
          </mxGeometry>
        </mxCell>
        <mxCell id="cRdm3prOxwqchVpbVx2k-96" value="" style="shape=tableRow;horizontal=0;startSize=0;swimlaneHead=0;swimlaneBody=0;top=0;left=0;bottom=0;right=0;dropTarget=0;collapsible=0;recursiveResize=0;expand=0;fontStyle=0;fillColor=none;strokeColor=inherit;swimlaneFillColor=none;" parent="cRdm3prOxwqchVpbVx2k-63" vertex="1">
          <mxGeometry y="42" width="160" height="39" as="geometry" />
        </mxCell>
        <mxCell id="cRdm3prOxwqchVpbVx2k-97" value="5" style="connectable=0;recursiveResize=0;strokeColor=#36393d;fillColor=#E1D5E7;align=center;whiteSpace=wrap;html=1;fillStyle=solid;" parent="cRdm3prOxwqchVpbVx2k-96" vertex="1">
          <mxGeometry width="40" height="39" as="geometry">
            <mxRectangle width="40" height="39" as="alternateBounds" />
          </mxGeometry>
        </mxCell>
        <mxCell id="cRdm3prOxwqchVpbVx2k-98" value="6" style="connectable=0;recursiveResize=0;strokeColor=#36393d;fillColor=#E1D5E7;align=center;whiteSpace=wrap;html=1;fillStyle=solid;" parent="cRdm3prOxwqchVpbVx2k-96" vertex="1">
          <mxGeometry x="40" width="40" height="39" as="geometry">
            <mxRectangle width="40" height="39" as="alternateBounds" />
          </mxGeometry>
        </mxCell>
        <mxCell id="cRdm3prOxwqchVpbVx2k-99" value="7" style="connectable=0;recursiveResize=0;strokeColor=#36393d;fillColor=#D5E8D4;align=center;whiteSpace=wrap;html=1;" parent="cRdm3prOxwqchVpbVx2k-96" vertex="1">
          <mxGeometry x="80" width="40" height="39" as="geometry">
            <mxRectangle width="40" height="39" as="alternateBounds" />
          </mxGeometry>
        </mxCell>
        <mxCell id="cRdm3prOxwqchVpbVx2k-128" value="8" style="connectable=0;recursiveResize=0;strokeColor=#36393d;fillColor=#D5E8D4;align=center;whiteSpace=wrap;html=1;" parent="cRdm3prOxwqchVpbVx2k-96" vertex="1">
          <mxGeometry x="120" width="40" height="39" as="geometry">
            <mxRectangle width="40" height="39" as="alternateBounds" />
          </mxGeometry>
        </mxCell>
        <mxCell id="cRdm3prOxwqchVpbVx2k-92" value="" style="shape=tableRow;horizontal=0;startSize=0;swimlaneHead=0;swimlaneBody=0;top=0;left=0;bottom=0;right=0;dropTarget=0;collapsible=0;recursiveResize=0;expand=0;fontStyle=0;fillColor=none;strokeColor=inherit;" parent="cRdm3prOxwqchVpbVx2k-63" vertex="1">
          <mxGeometry y="81" width="160" height="39" as="geometry" />
        </mxCell>
        <mxCell id="cRdm3prOxwqchVpbVx2k-93" value="3" style="connectable=0;recursiveResize=0;strokeColor=#36393d;fillColor=#FFF2CC;align=center;whiteSpace=wrap;html=1;" parent="cRdm3prOxwqchVpbVx2k-92" vertex="1">
          <mxGeometry width="40" height="39" as="geometry">
            <mxRectangle width="40" height="39" as="alternateBounds" />
          </mxGeometry>
        </mxCell>
        <mxCell id="cRdm3prOxwqchVpbVx2k-94" value="2" style="connectable=0;recursiveResize=0;strokeColor=#36393d;fillColor=#FFF2CC;align=center;whiteSpace=wrap;html=1;" parent="cRdm3prOxwqchVpbVx2k-92" vertex="1">
          <mxGeometry x="40" width="40" height="39" as="geometry">
            <mxRectangle width="40" height="39" as="alternateBounds" />
          </mxGeometry>
        </mxCell>
        <mxCell id="cRdm3prOxwqchVpbVx2k-95" value="1" style="connectable=0;recursiveResize=0;strokeColor=#36393d;fillColor=#D4E1F5;align=center;whiteSpace=wrap;html=1;" parent="cRdm3prOxwqchVpbVx2k-92" vertex="1">
          <mxGeometry x="80" width="40" height="39" as="geometry">
            <mxRectangle width="40" height="39" as="alternateBounds" />
          </mxGeometry>
        </mxCell>
        <mxCell id="cRdm3prOxwqchVpbVx2k-129" value="0" style="connectable=0;recursiveResize=0;strokeColor=#36393d;fillColor=#D4E1F5;align=center;whiteSpace=wrap;html=1;" parent="cRdm3prOxwqchVpbVx2k-92" vertex="1">
          <mxGeometry x="120" width="40" height="39" as="geometry">
            <mxRectangle width="40" height="39" as="alternateBounds" />
          </mxGeometry>
        </mxCell>
        <mxCell id="cRdm3prOxwqchVpbVx2k-88" value="" style="shape=tableRow;horizontal=0;startSize=0;swimlaneHead=0;swimlaneBody=0;top=0;left=0;bottom=0;right=0;dropTarget=0;collapsible=0;recursiveResize=0;expand=0;fontStyle=0;fillColor=none;strokeColor=inherit;" parent="cRdm3prOxwqchVpbVx2k-63" vertex="1">
          <mxGeometry y="120" width="160" height="40" as="geometry" />
        </mxCell>
        <mxCell id="cRdm3prOxwqchVpbVx2k-89" value="1" style="connectable=0;recursiveResize=0;strokeColor=#36393d;fillColor=#FFF2CC;align=center;whiteSpace=wrap;html=1;" parent="cRdm3prOxwqchVpbVx2k-88" vertex="1">
          <mxGeometry width="40" height="40" as="geometry">
            <mxRectangle width="40" height="40" as="alternateBounds" />
          </mxGeometry>
        </mxCell>
        <mxCell id="cRdm3prOxwqchVpbVx2k-90" value="2" style="connectable=0;recursiveResize=0;strokeColor=#36393d;fillColor=#FFF2CC;align=center;whiteSpace=wrap;html=1;" parent="cRdm3prOxwqchVpbVx2k-88" vertex="1">
          <mxGeometry x="40" width="40" height="40" as="geometry">
            <mxRectangle width="40" height="40" as="alternateBounds" />
          </mxGeometry>
        </mxCell>
        <mxCell id="cRdm3prOxwqchVpbVx2k-91" value="3" style="connectable=0;recursiveResize=0;strokeColor=#36393d;fillColor=#D4E1F5;align=center;whiteSpace=wrap;html=1;" parent="cRdm3prOxwqchVpbVx2k-88" vertex="1">
          <mxGeometry x="80" width="40" height="40" as="geometry">
            <mxRectangle width="40" height="40" as="alternateBounds" />
          </mxGeometry>
        </mxCell>
        <mxCell id="cRdm3prOxwqchVpbVx2k-130" value="4" style="connectable=0;recursiveResize=0;strokeColor=#36393d;fillColor=#D4E1F5;align=center;whiteSpace=wrap;html=1;" parent="cRdm3prOxwqchVpbVx2k-88" vertex="1">
          <mxGeometry x="120" width="40" height="40" as="geometry">
            <mxRectangle width="40" height="40" as="alternateBounds" />
          </mxGeometry>
        </mxCell>
        <mxCell id="cRdm3prOxwqchVpbVx2k-132" value="" style="endArrow=classic;html=1;rounded=0;" parent="1" edge="1">
          <mxGeometry width="50" height="50" relative="1" as="geometry">
            <mxPoint x="190" y="560" as="sourcePoint" />
            <mxPoint x="350" y="560" as="targetPoint" />
          </mxGeometry>
        </mxCell>
        <mxCell id="cRdm3prOxwqchVpbVx2k-168" value="" style="childLayout=tableLayout;recursiveResize=0;shadow=0;fillColor=#ffff88;direction=north;strokeColor=#36393d;" parent="1" vertex="1">
          <mxGeometry x="550" y="421" width="80" height="78" as="geometry" />
        </mxCell>
        <mxCell id="cRdm3prOxwqchVpbVx2k-174" value="" style="shape=tableRow;horizontal=0;startSize=0;swimlaneHead=0;swimlaneBody=0;top=0;left=0;bottom=0;right=0;dropTarget=0;collapsible=0;recursiveResize=0;expand=0;fontStyle=0;fillColor=none;strokeColor=inherit;swimlaneFillColor=none;" parent="cRdm3prOxwqchVpbVx2k-168" vertex="1">
          <mxGeometry width="80" height="39" as="geometry" />
        </mxCell>
        <mxCell id="cRdm3prOxwqchVpbVx2k-176" value="6" style="connectable=0;recursiveResize=0;strokeColor=#36393d;fillColor=#E1D5E7;align=center;whiteSpace=wrap;html=1;fillStyle=solid;" parent="cRdm3prOxwqchVpbVx2k-174" vertex="1">
          <mxGeometry width="40" height="39" as="geometry">
            <mxRectangle width="40" height="39" as="alternateBounds" />
          </mxGeometry>
        </mxCell>
        <mxCell id="cRdm3prOxwqchVpbVx2k-177" value="8" style="connectable=0;recursiveResize=0;strokeColor=#36393d;fillColor=#D5E8D4;align=center;whiteSpace=wrap;html=1;" parent="cRdm3prOxwqchVpbVx2k-174" vertex="1">
          <mxGeometry x="40" width="40" height="39" as="geometry">
            <mxRectangle width="40" height="39" as="alternateBounds" />
          </mxGeometry>
        </mxCell>
        <mxCell id="cRdm3prOxwqchVpbVx2k-179" value="" style="shape=tableRow;horizontal=0;startSize=0;swimlaneHead=0;swimlaneBody=0;top=0;left=0;bottom=0;right=0;dropTarget=0;collapsible=0;recursiveResize=0;expand=0;fontStyle=0;fillColor=none;strokeColor=inherit;" parent="cRdm3prOxwqchVpbVx2k-168" vertex="1">
          <mxGeometry y="39" width="80" height="39" as="geometry" />
        </mxCell>
        <mxCell id="cRdm3prOxwqchVpbVx2k-181" value="3" style="connectable=0;recursiveResize=0;strokeColor=#36393d;fillColor=#FFF2CC;align=center;whiteSpace=wrap;html=1;" parent="cRdm3prOxwqchVpbVx2k-179" vertex="1">
          <mxGeometry width="40" height="39" as="geometry">
            <mxRectangle width="40" height="39" as="alternateBounds" />
          </mxGeometry>
        </mxCell>
        <mxCell id="cRdm3prOxwqchVpbVx2k-182" value="4" style="connectable=0;recursiveResize=0;strokeColor=#36393d;fillColor=#D4E1F5;align=center;whiteSpace=wrap;html=1;" parent="cRdm3prOxwqchVpbVx2k-179" vertex="1">
          <mxGeometry x="40" width="40" height="39" as="geometry">
            <mxRectangle width="40" height="39" as="alternateBounds" />
          </mxGeometry>
        </mxCell>
        <mxCell id="cRdm3prOxwqchVpbVx2k-189" value="" style="endArrow=classic;html=1;strokeColor=#000000;fontColor=#1A1A1A;rounded=0;" parent="1" edge="1">
          <mxGeometry width="50" height="50" relative="1" as="geometry">
            <mxPoint x="370" y="460" as="sourcePoint" />
            <mxPoint x="530" y="460" as="targetPoint" />
          </mxGeometry>
        </mxCell>
        <mxCell id="cRdm3prOxwqchVpbVx2k-190" value="池化窗口 2\(\times\)2 步长为2" style="text;html=1;strokeColor=none;fillColor=none;align=center;verticalAlign=middle;whiteSpace=wrap;rounded=0;fontColor=#1A1A1A;" parent="1" vertex="1">
          <mxGeometry x="320" y="440" width="250" as="geometry" />
        </mxCell>
        <mxCell id="cRdm3prOxwqchVpbVx2k-192" value="4" style="text;html=1;strokeColor=none;fillColor=none;align=center;verticalAlign=middle;whiteSpace=wrap;rounded=0;fontColor=#1A1A1A;" parent="1" vertex="1">
          <mxGeometry x="100" y="445" width="60" height="30" as="geometry" />
        </mxCell>
        <mxCell id="cRdm3prOxwqchVpbVx2k-193" value="4" style="text;html=1;strokeColor=none;fillColor=none;align=center;verticalAlign=middle;whiteSpace=wrap;rounded=0;fontColor=#1A1A1A;" parent="1" vertex="1">
          <mxGeometry x="240" y="570" width="60" height="30" as="geometry" />
        </mxCell>
        <mxCell id="cRdm3prOxwqchVpbVx2k-194" value="最大池" style="text;html=1;strokeColor=none;fillColor=none;align=center;verticalAlign=middle;whiteSpace=wrap;rounded=0;fontColor=#1A1A1A;" parent="1" vertex="1">
          <mxGeometry x="415" y="469" width="60" height="30" as="geometry" />
        </mxCell>
      </root>
    </mxGraphModel>
  </diagram>
</mxfile>
